Coordinates
version=1
nRows=65
nColumns=12
inDegrees=yes

Units are S.I. units (second, meters, Newtons, ...)
Angles are in degrees

endheader
time	SC_y	SC_z	SC_x	AC_y	AC_z	AC_x	GH_y	GH_z	GH_yy	EL_x	PS_y
       0.0              -26.26          33.83          9.452          68.54         -18.92         -7.586         -178.8          38.84          38.08          92.91          37.42
   0.02329              -26.26          33.83          9.451          68.54         -18.92         -7.585         -178.8          38.83          38.06           92.9          37.43
   0.04657              -26.27          33.83          9.451          68.54         -18.91         -7.584         -178.8          38.82          38.04          92.89          37.45
   0.06986              -26.27          33.82          9.451          68.54         -18.91         -7.584         -178.8          38.81          38.02          92.88          37.47
   0.09315              -26.27          33.82           9.45          68.54         -18.91         -7.583         -178.8           38.8          37.99          92.87          37.48
    0.1164              -26.27          33.82           9.45          68.54         -18.91         -7.582         -178.8          38.79          37.97          92.85           37.5
    0.1397              -26.28          33.81           9.45          68.54          -18.9         -7.581         -178.8          38.78          37.94          92.84          37.52
     0.163              -26.28          33.81          9.449          68.54          -18.9         -7.581         -178.8          38.77          37.91          92.82          37.55
    0.1863              -26.28          33.81          9.449          68.54          -18.9          -7.58         -178.8          38.76          37.88          92.81          37.57
    0.2096              -26.28           33.8          9.449          68.54         -18.89         -7.579         -178.8          38.74          37.84          92.79          37.59
    0.2329              -26.29           33.8          9.448          68.54         -18.89         -7.577         -178.7          38.73          37.81          92.77          37.62
    0.2562              -26.29          33.79          9.448          68.54         -18.89         -7.576         -178.7          38.71          37.77          92.75          37.65
    0.2794               -26.3          33.79          9.447          68.54         -18.88         -7.575         -178.7          38.69          37.73          92.73          37.68
    0.3027               -26.3          33.78          9.446          68.54         -18.88         -7.574         -178.7          38.68          37.68           92.7          37.72
     0.326               -26.3          33.77          9.446          68.54         -18.87         -7.572         -178.7          38.66          37.63          92.68          37.75
    0.3493              -26.31          33.77          9.445          68.54         -18.87         -7.571         -178.7          38.64          37.58          92.65          37.79
    0.3726              -26.32          33.76          9.444          68.54         -18.86         -7.569         -178.7          38.61          37.52          92.62          37.83
    0.3959              -26.32          33.75          9.444          68.54         -18.85         -7.567         -178.7          38.59          37.46          92.58          37.88
    0.4192              -26.33          33.74          9.443          68.54         -18.85         -7.565         -178.6          38.56          37.39          92.55          37.93
    0.4425              -26.33          33.73          9.442          68.54         -18.84         -7.562         -178.6          38.53          37.32          92.51          37.99
    0.4657              -26.34          33.72          9.441          68.55         -18.83          -7.56         -178.6          38.49          37.24          92.46          38.05
     0.489              -26.35          33.71           9.44          68.55         -18.82         -7.557         -178.6          38.46          37.15          92.42          38.12
    0.5123              -26.36           33.7          9.438          68.55         -18.81         -7.554         -178.6          38.42          37.05          92.36          38.19
    0.5356              -26.37          33.68          9.437          68.55          -18.8         -7.551         -178.5          38.37          36.94           92.3          38.28
    0.5589              -26.38          33.67          9.435          68.55         -18.79         -7.547         -178.5          38.32          36.81          92.24          38.37
    0.5822              -26.39          33.65          9.433          68.55         -18.77         -7.543         -178.5          38.26          36.68          92.17          38.47
    0.6055              -26.41          33.63          9.432          68.55         -18.75         -7.538         -178.4           38.2          36.52          92.08          38.59
    0.6287              -26.43           33.6          9.429          68.55         -18.74         -7.533         -178.4          38.13          36.35          91.99          38.72
     0.652              -26.44          33.58          9.427          68.55         -18.72         -7.527         -178.3          38.05          36.15          91.89          38.87
    0.6753              -26.46          33.55          9.424          68.56         -18.69          -7.52         -178.3          37.96          35.93          91.77          39.03
    0.6986              -26.49          33.52          9.421          68.56         -18.67         -7.512         -178.2          37.86          35.68          91.64          39.22
    0.7219              -26.52          33.48          9.417          68.56         -18.63         -7.503         -178.1          37.74          35.39          91.48          39.44
    0.7452              -26.55          33.43          9.413          68.56          -18.6         -7.493         -178.1           37.6          35.05           91.3           39.7
    0.7685              -26.58          33.38          9.408          68.57         -18.56         -7.481         -178.0          37.44          34.66          91.09          39.99
    0.7918              -26.63          33.32          9.402          68.57         -18.51         -7.467         -177.9          37.25          34.21          90.85          40.33
     0.815              -26.68          33.25          9.395          68.57         -18.45          -7.45         -177.7          37.03          33.67          90.57          40.74
    0.8383              -26.74          33.17          9.386          68.58         -18.39         -7.431         -177.6          36.77          33.03          90.23          41.22
    0.8616              -26.81          33.07          9.377          68.59         -18.31         -7.407         -177.4          36.46          32.26          89.82          41.79
    0.8849               -26.9          32.95          9.365          68.59         -18.21         -7.379         -177.1          36.08          31.33          89.32          42.49
    0.9082               -27.0           32.8           9.35           68.6         -18.09         -7.344         -176.9          35.62           30.2          88.72          43.34
    0.9315              -27.13          32.62          9.332          68.61         -17.94         -7.301         -176.5          35.05           28.8          87.98          44.39
    0.9548               -27.3          32.39           9.31          68.63         -17.76         -7.248         -176.1          34.33          27.06          87.05          45.71
     0.978               -27.5           32.1          9.281          68.65         -17.53         -7.181         -175.6          33.44          24.87          85.88          47.36
     1.001              -27.77          31.73          9.245          68.67         -17.23         -7.095         -174.9           32.3          22.07           84.4          49.46
     1.025               -28.1          31.26          9.199           68.7         -16.86         -6.985         -174.0          30.84           18.5          82.49          52.15
     1.048              -28.53          30.66           9.14          68.73         -16.37         -6.845         -172.9          28.96          13.92          80.06          55.59
     1.071              -29.08           29.9          9.065          68.78         -15.76         -6.665         -171.4          26.57           8.06          76.94           60.0
     1.094              -29.77          28.93           8.97          68.84         -14.98          -6.44         -169.6          23.56         0.6968          73.02          65.54
     1.118              -30.62          27.75          8.854          68.91         -14.04         -6.164         -167.4          19.89         -8.277          68.24          72.29
     1.141              -31.59          26.39           8.72           69.0         -12.94         -5.845         -164.8          15.64         -18.68          62.71          80.11
     1.164              -32.65          24.91          8.575          69.09         -11.76           -5.5         -162.0          11.04         -29.94          56.72          88.59
     1.188              -33.71          23.43          8.429          69.18         -10.57         -5.155         -159.3          6.432          -41.2          50.72          97.06
     1.211              -34.68          22.07          8.295          69.27         -9.476         -4.836         -156.7           2.18         -51.61          45.19          104.9
     1.234              -35.53          20.89           8.18          69.34         -8.531         -4.561         -154.5         -1.488         -60.58          40.41          111.6
     1.257              -36.22          19.93          8.085           69.4         -7.755         -4.335         -152.7         -4.498         -67.94          36.49          117.2
     1.281              -36.77          19.16          8.009          69.45         -7.139         -4.155         -151.2         -6.891          -73.8          33.38          121.6
     1.304               -37.2          18.56           7.95          69.48         -6.656         -4.015         -150.1         -8.765         -78.38          30.94          125.0
     1.327              -37.53          18.09          7.904          69.51          -6.28         -3.905         -149.2         -10.23         -81.96          29.04          127.7
     1.351               -37.8          17.72          7.868          69.54         -5.986          -3.82         -148.5         -11.37         -84.75          27.55          129.8
     1.374               -38.0          17.44           7.84          69.55         -5.755         -3.752         -148.0         -12.26         -86.94          26.38          131.5
     1.397              -38.17          17.21          7.817          69.57         -5.571         -3.699         -147.6         -12.98         -88.69          25.45          132.8
      1.42               -38.3          17.02          7.799          69.58         -5.424         -3.656         -147.2         -13.55         -90.08          24.71          133.8
     1.444               -38.4          16.88          7.785          69.59         -5.305         -3.621         -146.9         -14.01         -91.22          24.11          134.7
     1.467              -38.49          16.75          7.773           69.6         -5.207         -3.593         -146.7         -14.39         -92.14          23.61          135.4
      1.49              -38.56          16.65          7.763           69.6         -5.127         -3.569         -146.5          -14.7         -92.91          23.21          136.0
